<svg width="24" height="23" viewBox="0 0 24 23" fill="none" xmlns="http://www.w3.org/2000/svg">
<path d="M6.17962 3.32038L6.79289 2.70711C7.18342 2.31658 7.81658 2.31658 8.20711 2.70711L10.7929 5.29289C11.1834 5.68342 11.1834 6.31658 10.7929 6.70711L9.00048 8.49952C8.7016 8.7984 8.6275 9.255 8.81653 9.63307C9.90929 11.8186 11.6814 13.5907 13.8669 14.6835C14.245 14.8725 14.7016 14.7984 15.0005 14.4995L16.7929 12.7071C17.1834 12.3166 17.8166 12.3166 18.2071 12.7071L20.7929 15.2929C21.1834 15.6834 21.1834 16.3166 20.7929 16.7071L20.1796 17.3204C18.0683 19.4317 14.7257 19.6693 12.337 17.8777L11.1286 16.9714C9.38504 15.6638 7.83622 14.115 6.52857 12.3714L5.62226 11.163C3.83072 8.7743 4.06827 5.43173 6.17962 3.32038Z" fill="white"/>
</svg>
