<svg width="147" height="145" viewBox="0 0 147 145" fill="none" xmlns="http://www.w3.org/2000/svg">
<g filter="url(#filter0_d_1_1499)">
<ellipse cx="72.8124" cy="102.549" rx="52.5358" ry="32.9122" fill="url(#paint0_linear_1_1499)" fill-opacity="0.5" shape-rendering="crispEdges"/>
<path d="M124.831 102.549C124.831 111.395 119.106 119.481 109.686 125.382C100.273 131.279 87.238 134.943 72.8124 134.943C58.3867 134.943 45.3513 131.279 35.9388 125.382C26.5191 119.481 20.7942 111.395 20.7942 102.549C20.7942 93.7024 26.5191 85.6159 35.9388 79.7147C45.3513 73.818 58.3867 70.1539 72.8124 70.1539C87.238 70.1539 100.273 73.818 109.686 79.7147C119.106 85.6159 124.831 93.7024 124.831 102.549Z" stroke="url(#paint1_linear_1_1499)" stroke-opacity="0.6" stroke-width="1.03515" shape-rendering="crispEdges"/>
</g>
<circle cx="72.8129" cy="71.8589" r="66.65" fill="url(#paint2_radial_1_1499)"/>
<g filter="url(#filter1_d_1_1499)">
<ellipse cx="72.8127" cy="82.8787" rx="65.1615" ry="38.1208" fill="url(#paint3_linear_1_1499)" fill-opacity="0.5" shape-rendering="crispEdges"/>
<path d="M137.457 82.8787C137.457 93.1457 130.34 102.536 118.628 109.387C106.928 116.232 90.7312 120.482 72.8127 120.482C54.8943 120.482 38.6975 116.232 26.9979 109.387C15.2859 102.536 8.16876 93.1457 8.16876 82.8787C8.16876 72.6118 15.2859 63.2218 26.9979 56.37C38.6975 49.5256 54.8943 45.2756 72.8127 45.2756C90.7312 45.2756 106.928 49.5256 118.628 56.37C130.34 63.2218 137.457 72.6118 137.457 82.8787Z" stroke="url(#paint4_linear_1_1499)" stroke-opacity="0.6" stroke-width="1.03515" shape-rendering="crispEdges"/>
</g>
<circle cx="72.8142" cy="71.8591" r="49.369" fill="url(#paint5_radial_1_1499)"/>
<circle cx="72.8142" cy="71.8591" r="49.369" fill="url(#paint6_radial_1_1499)"/>
<g filter="url(#filter2_d_1_1499)">
<ellipse cx="72.8145" cy="59.2128" rx="64.4987" ry="37.2392" fill="url(#paint7_linear_1_1499)" fill-opacity="0.5" shape-rendering="crispEdges"/>
<path d="M136.796 59.2128C136.796 69.233 129.757 78.4029 118.163 85.0967C106.583 91.7826 90.5511 95.9344 72.8145 95.9344C55.078 95.9344 39.0459 91.7826 27.4658 85.0967C15.8721 78.4029 8.83337 69.233 8.83337 59.2128C8.83337 49.1927 15.8721 40.0228 27.4658 33.329C39.0459 26.6431 55.078 22.4912 72.8145 22.4912C90.5511 22.4912 106.583 26.6431 118.163 33.329C129.757 40.0228 136.796 49.1927 136.796 59.2128Z" stroke="url(#paint8_linear_1_1499)" stroke-opacity="0.6" stroke-width="1.03515" shape-rendering="crispEdges"/>
</g>
<g filter="url(#filter3_d_1_1499)">
<ellipse cx="72.812" cy="39.9832" rx="50.0491" ry="32.3504" fill="url(#paint9_linear_1_1499)" fill-opacity="0.5" shape-rendering="crispEdges"/>
<path d="M122.344 39.9832C122.344 48.682 116.888 56.6277 107.921 62.4237C98.9595 68.2163 86.5479 71.816 72.812 71.816C59.0761 71.816 46.6646 68.2163 37.7029 62.4237C28.736 56.6277 23.2805 48.682 23.2805 39.9832C23.2805 31.2843 28.736 23.3386 37.7029 17.5426C46.6646 11.75 59.0761 8.1503 72.812 8.1503C86.5479 8.1503 98.9595 11.75 107.921 17.5426C116.888 23.3386 122.344 31.2843 122.344 39.9832Z" stroke="url(#paint10_linear_1_1499)" stroke-opacity="0.6" stroke-width="1.03515" shape-rendering="crispEdges"/>
</g>
<g filter="url(#filter4_d_1_1499)">
<ellipse cx="72.8139" cy="28.7469" rx="31.1518" ry="21.1141" fill="url(#paint11_linear_1_1499)" fill-opacity="0.5" shape-rendering="crispEdges"/>
<path d="M103.448 28.7469C103.448 34.3545 100.095 39.4909 94.5512 43.2484C89.0103 47.0039 81.3266 49.3434 72.8139 49.3434C64.3012 49.3434 56.6175 47.0039 51.0766 43.2484C45.5329 39.4909 42.1796 34.3545 42.1796 28.7469C42.1796 23.1393 45.5329 18.0028 51.0766 14.2453C56.6175 10.4898 64.3012 8.1503 72.8139 8.1503C81.3266 8.1503 89.0103 10.4898 94.5512 14.2453C100.095 18.0028 103.448 23.1393 103.448 28.7469Z" stroke="url(#paint12_linear_1_1499)" stroke-opacity="0.6" stroke-width="1.03515" shape-rendering="crispEdges"/>
</g>
<circle cx="72.8129" cy="71.8589" r="66.65" fill="url(#paint13_radial_1_1499)" fill-opacity="0.9"/>
<defs>
<filter id="filter0_d_1_1499" x="13.5481" y="62.9078" width="120.599" height="81.3518" filterUnits="userSpaceOnUse" color-interpolation-filters="sRGB">
<feFlood flood-opacity="0" result="BackgroundImageFix"/>
<feColorMatrix in="SourceAlpha" type="matrix" values="0 0 0 0 0 0 0 0 0 0 0 0 0 0 0 0 0 0 127 0" result="hardAlpha"/>
<feOffset dx="1.03515" dy="1.03515"/>
<feGaussianBlur stdDeviation="3.88183"/>
<feComposite in2="hardAlpha" operator="out"/>
<feColorMatrix type="matrix" values="0 0 0 0 0.440043 0 0 0 0 0.20092 0 0 0 0 0.679167 0 0 0 0.2 0"/>
<feBlend mode="normal" in2="BackgroundImageFix" result="effect1_dropShadow_1_1499"/>
<feBlend mode="normal" in="SourceGraphic" in2="effect1_dropShadow_1_1499" result="shape"/>
</filter>
<filter id="filter1_d_1_1499" x="0.92268" y="38.0295" width="145.85" height="91.7688" filterUnits="userSpaceOnUse" color-interpolation-filters="sRGB">
<feFlood flood-opacity="0" result="BackgroundImageFix"/>
<feColorMatrix in="SourceAlpha" type="matrix" values="0 0 0 0 0 0 0 0 0 0 0 0 0 0 0 0 0 0 127 0" result="hardAlpha"/>
<feOffset dx="1.03515" dy="1.03515"/>
<feGaussianBlur stdDeviation="3.88183"/>
<feComposite in2="hardAlpha" operator="out"/>
<feColorMatrix type="matrix" values="0 0 0 0 0.440043 0 0 0 0 0.20092 0 0 0 0 0.679167 0 0 0 0.2 0"/>
<feBlend mode="normal" in2="BackgroundImageFix" result="effect1_dropShadow_1_1499"/>
<feBlend mode="normal" in="SourceGraphic" in2="effect1_dropShadow_1_1499" result="shape"/>
</filter>
<filter id="filter2_d_1_1499" x="1.58729" y="15.2452" width="144.525" height="90.0057" filterUnits="userSpaceOnUse" color-interpolation-filters="sRGB">
<feFlood flood-opacity="0" result="BackgroundImageFix"/>
<feColorMatrix in="SourceAlpha" type="matrix" values="0 0 0 0 0 0 0 0 0 0 0 0 0 0 0 0 0 0 127 0" result="hardAlpha"/>
<feOffset dx="1.03515" dy="1.03515"/>
<feGaussianBlur stdDeviation="3.88183"/>
<feComposite in2="hardAlpha" operator="out"/>
<feColorMatrix type="matrix" values="0 0 0 0 0.440043 0 0 0 0 0.20092 0 0 0 0 0.679167 0 0 0 0.2 0"/>
<feBlend mode="normal" in2="BackgroundImageFix" result="effect1_dropShadow_1_1499"/>
<feBlend mode="normal" in="SourceGraphic" in2="effect1_dropShadow_1_1499" result="shape"/>
</filter>
<filter id="filter3_d_1_1499" x="16.0344" y="0.904217" width="115.626" height="80.2282" filterUnits="userSpaceOnUse" color-interpolation-filters="sRGB">
<feFlood flood-opacity="0" result="BackgroundImageFix"/>
<feColorMatrix in="SourceAlpha" type="matrix" values="0 0 0 0 0 0 0 0 0 0 0 0 0 0 0 0 0 0 127 0" result="hardAlpha"/>
<feOffset dx="1.03515" dy="1.03515"/>
<feGaussianBlur stdDeviation="3.88183"/>
<feComposite in2="hardAlpha" operator="out"/>
<feColorMatrix type="matrix" values="0 0 0 0 0.440043 0 0 0 0 0.20092 0 0 0 0 0.679167 0 0 0 0.2 0"/>
<feBlend mode="normal" in2="BackgroundImageFix" result="effect1_dropShadow_1_1499"/>
<feBlend mode="normal" in="SourceGraphic" in2="effect1_dropShadow_1_1499" result="shape"/>
</filter>
<filter id="filter4_d_1_1499" x="34.9335" y="0.904217" width="77.831" height="57.7556" filterUnits="userSpaceOnUse" color-interpolation-filters="sRGB">
<feFlood flood-opacity="0" result="BackgroundImageFix"/>
<feColorMatrix in="SourceAlpha" type="matrix" values="0 0 0 0 0 0 0 0 0 0 0 0 0 0 0 0 0 0 127 0" result="hardAlpha"/>
<feOffset dx="1.03515" dy="1.03515"/>
<feGaussianBlur stdDeviation="3.88183"/>
<feComposite in2="hardAlpha" operator="out"/>
<feColorMatrix type="matrix" values="0 0 0 0 0.440043 0 0 0 0 0.20092 0 0 0 0 0.679167 0 0 0 0.2 0"/>
<feBlend mode="normal" in2="BackgroundImageFix" result="effect1_dropShadow_1_1499"/>
<feBlend mode="normal" in="SourceGraphic" in2="effect1_dropShadow_1_1499" result="shape"/>
</filter>
<linearGradient id="paint0_linear_1_1499" x1="125.348" y1="95.4248" x2="20.3096" y2="103.006" gradientUnits="userSpaceOnUse">
<stop stop-color="#4E53BE" stop-opacity="0.5"/>
<stop offset="0.885417" stop-color="#FB33FF" stop-opacity="0.5"/>
<stop offset="1" stop-color="white" stop-opacity="0.5"/>
</linearGradient>
<linearGradient id="paint1_linear_1_1499" x1="81.9947" y1="149.752" x2="88.5438" y2="76.9261" gradientUnits="userSpaceOnUse">
<stop stop-color="white"/>
<stop offset="1" stop-color="white" stop-opacity="0"/>
</linearGradient>
<radialGradient id="paint2_radial_1_1499" cx="0" cy="0" r="1" gradientUnits="userSpaceOnUse" gradientTransform="translate(6.16297 96.1044) rotate(-19.6638) scale(141.555)">
<stop offset="0.249306" stop-color="white"/>
<stop offset="0.48315" stop-color="#FF8FED" stop-opacity="0.5"/>
<stop offset="0.627037" stop-color="#220C7A" stop-opacity="0.5"/>
</radialGradient>
<linearGradient id="paint3_linear_1_1499" x1="137.974" y1="74.6277" x2="7.79112" y2="84.6894" gradientUnits="userSpaceOnUse">
<stop stop-color="#4E53BE" stop-opacity="0.5"/>
<stop offset="0.885417" stop-color="#FB33FF" stop-opacity="0.5"/>
<stop offset="1" stop-color="white" stop-opacity="0.5"/>
</linearGradient>
<linearGradient id="paint4_linear_1_1499" x1="84.2018" y1="137.552" x2="91.2927" y2="53.1146" gradientUnits="userSpaceOnUse">
<stop stop-color="white"/>
<stop offset="1" stop-color="white" stop-opacity="0"/>
</linearGradient>
<radialGradient id="paint5_radial_1_1499" cx="0" cy="0" r="1" gradientUnits="userSpaceOnUse" gradientTransform="translate(88.6797 121.228) rotate(-107.749) scale(99.169)">
<stop offset="0.223958" stop-color="white"/>
<stop offset="0.466382" stop-color="#FFCEF1"/>
<stop offset="0.682292" stop-color="#B6B9FF"/>
<stop offset="0.881791" stop-color="white"/>
</radialGradient>
<radialGradient id="paint6_radial_1_1499" cx="0" cy="0" r="1" gradientUnits="userSpaceOnUse" gradientTransform="translate(97.2064 121.228) rotate(-100.377) scale(135.421)">
<stop stop-color="white"/>
<stop offset="1" stop-color="white" stop-opacity="0"/>
</radialGradient>
<linearGradient id="paint7_linear_1_1499" x1="137.313" y1="51.1526" x2="8.47473" y2="61.2424" gradientUnits="userSpaceOnUse">
<stop stop-color="#4E53BE" stop-opacity="0.5"/>
<stop offset="0.885417" stop-color="#FB33FF" stop-opacity="0.5"/>
<stop offset="1" stop-color="white" stop-opacity="0.5"/>
</linearGradient>
<linearGradient id="paint8_linear_1_1499" x1="84.0877" y1="112.622" x2="90.9253" y2="30.122" gradientUnits="userSpaceOnUse">
<stop stop-color="white"/>
<stop offset="1" stop-color="white" stop-opacity="0"/>
</linearGradient>
<linearGradient id="paint9_linear_1_1499" x1="122.861" y1="32.981" x2="22.7629" y2="39.9832" gradientUnits="userSpaceOnUse">
<stop stop-color="#4E53BE" stop-opacity="0.5"/>
<stop offset="0.885417" stop-color="#FB33FF" stop-opacity="0.5"/>
<stop offset="1" stop-color="white" stop-opacity="0.5"/>
</linearGradient>
<linearGradient id="paint10_linear_1_1499" x1="81.5597" y1="86.3804" x2="88.1982" y2="14.835" gradientUnits="userSpaceOnUse">
<stop stop-color="white"/>
<stop offset="1" stop-color="white" stop-opacity="0"/>
</linearGradient>
<linearGradient id="paint11_linear_1_1499" x1="103.966" y1="24.1768" x2="41.6346" y2="28.335" gradientUnits="userSpaceOnUse">
<stop stop-color="#4E53BE" stop-opacity="0.5"/>
<stop offset="0.885417" stop-color="#FB33FF" stop-opacity="0.5"/>
<stop offset="1" stop-color="white" stop-opacity="0.5"/>
</linearGradient>
<linearGradient id="paint12_linear_1_1499" x1="78.2587" y1="59.0289" x2="82.798" y2="12.3731" gradientUnits="userSpaceOnUse">
<stop stop-color="white"/>
<stop offset="1" stop-color="white" stop-opacity="0"/>
</linearGradient>
<radialGradient id="paint13_radial_1_1499" cx="0" cy="0" r="1" gradientUnits="userSpaceOnUse" gradientTransform="translate(46.0449 146.928) rotate(-65.1363) scale(210.169)">
<stop offset="0.249306" stop-color="white"/>
<stop offset="0.48315" stop-color="#FF8FED" stop-opacity="0.5"/>
<stop offset="0.627037" stop-color="#220C7A" stop-opacity="0"/>
</radialGradient>
</defs>
</svg>
