<svg width="884" height="717" viewBox="0 0 884 717" fill="none" xmlns="http://www.w3.org/2000/svg">
<rect x="239.439" y="249.723" width="2.73802" height="2.73802" transform="rotate(45 239.439 249.723)" fill="#0066FF" fill-opacity="0.5"/>
<rect x="268.509" y="304.251" width="5.52977" height="5.52977" transform="rotate(45 268.509 304.251)" fill="#0066FF" fill-opacity="0.5"/>
<rect width="2.57312" height="2.57312" transform="matrix(-0.707129 -0.707085 -0.707129 0.707085 369.703 308.161)" fill="#0066FF" fill-opacity="0.5"/>
<rect x="327.231" y="356.879" width="2.73802" height="2.73802" transform="rotate(45 327.231 356.879)" fill="#0066FF" fill-opacity="0.5"/>
<rect x="179.138" y="243.236" width="2.73802" height="2.73802" transform="rotate(45 179.138 243.236)" fill="#0066FF" fill-opacity="0.5"/>
<rect x="193.746" y="151.075" width="2.73802" height="2.73802" transform="rotate(45 193.746 151.075)" fill="#0500FF" fill-opacity="0.5"/>
<rect width="1.9111" height="1.9111" transform="matrix(0.707077 0.707136 -0.707077 0.707136 235.567 204.874)" fill="#0500FF" fill-opacity="0.5"/>
<rect x="212.256" y="195.318" width="3.56551" height="3.56551" transform="rotate(45 212.256 195.318)" fill="#0500FF" fill-opacity="0.5"/>
<rect x="87.3882" y="562.598" width="3.80692" height="3.80692" transform="rotate(45 87.3882 562.598)" fill="#0066FF" fill-opacity="0.5"/>
<rect width="7.68854" height="7.68854" transform="matrix(0.707114 0.707099 -0.707114 0.707099 127.807 638.412)" fill="#0066FF" fill-opacity="0.5"/>
<rect width="3.57764" height="3.57764" transform="matrix(-0.707107 -0.707107 -0.707107 0.707107 268.506 643.849)" fill="#0066FF" fill-opacity="0.5"/>
<rect width="3.80692" height="3.80692" transform="matrix(0.707122 0.707092 -0.707122 0.707092 209.453 711.588)" fill="#0066FF" fill-opacity="0.5"/>
<rect width="3.80692" height="3.80692" transform="matrix(0.707122 0.707092 -0.707122 0.707092 3.54506 553.578)" fill="#0066FF" fill-opacity="0.5"/>
<rect x="23.856" y="425.439" width="3.80692" height="3.80692" transform="rotate(45 23.856 425.439)" fill="#0500FF" fill-opacity="0.5"/>
<rect x="82.0046" y="500.241" width="2.66065" height="2.66065" transform="rotate(45 82.0046 500.241)" fill="#0500FF" fill-opacity="0.5"/>
<rect width="4.95745" height="4.95745" transform="matrix(0.707118 0.707095 -0.707118 0.707095 49.5917 486.954)" fill="#0500FF" fill-opacity="0.5"/>
<rect x="789.24" y="381.921" width="3.25833" height="3.25833" transform="rotate(-32.8977 789.24 381.921)" fill="#0500FF" fill-opacity="0.5"/>
<rect width="2.27427" height="2.27427" transform="matrix(0.839624 -0.543168 0.543113 0.83966 862.274 346.681)" fill="#0500FF" fill-opacity="0.5"/>
<rect width="4.24306" height="4.24306" transform="matrix(0.839652 -0.543126 0.543155 0.839632 845.337 371.421)" fill="#0500FF" fill-opacity="0.5"/>
<rect x="735.255" y="250.855" width="6.58059" height="6.5806" transform="rotate(9.6901 735.255 250.855)" fill="#0066FF" fill-opacity="0.5"/>
<rect width="3.06209" height="3.06209" transform="matrix(-0.985732 -0.168319 -0.168319 0.985733 836.216 185.047)" fill="#0066FF" fill-opacity="0.5"/>
<rect x="828.482" y="261.574" width="3.25833" height="3.25833" transform="rotate(9.6901 828.482 261.574)" fill="#0066FF" fill-opacity="0.5"/>
<rect x="606.499" y="253.077" width="3.25833" height="3.25833" transform="rotate(9.6901 606.499 253.077)" fill="#0066FF" fill-opacity="0.5"/>
<rect x="557.293" y="153.533" width="3.25833" height="3.25833" transform="rotate(9.6901 557.293 153.533)" fill="#0500FF" fill-opacity="0.5"/>
<rect width="2.27427" height="2.27427" transform="matrix(0.985735 0.168305 -0.168333 0.98573 634.911 177.01)" fill="#0500FF" fill-opacity="0.5"/>
<rect x="605.701" y="183.764" width="4.24306" height="4.24306" transform="rotate(9.6901 605.701 183.764)" fill="#0500FF" fill-opacity="0.5"/>
</svg>
