<svg width="304" height="299" viewBox="0 0 304 299" fill="none" xmlns="http://www.w3.org/2000/svg">
<circle cx="151.02" cy="149.583" r="147.322" fill="url(#paint0_radial_1_1484)" fill-opacity="0.5"/>
<g filter="url(#filter0_d_1_1484)">
<ellipse cx="151.021" cy="217.419" rx="116.124" ry="72.7485" fill="url(#paint1_linear_1_1484)" fill-opacity="0.5" shape-rendering="crispEdges"/>
<path d="M266.628 217.419C266.628 237.265 253.786 255.311 232.859 268.421C211.939 281.527 183.006 289.65 151.021 289.65C119.036 289.65 90.1038 281.527 69.184 268.421C48.2571 255.311 35.4149 237.265 35.4149 217.419C35.4149 197.572 48.2571 179.527 69.184 166.416C90.1038 153.311 119.036 145.188 151.021 145.188C183.006 145.188 211.939 153.311 232.859 166.416C253.786 179.527 266.628 197.572 266.628 217.419Z" stroke="url(#paint2_linear_1_1484)" stroke-opacity="0.6" stroke-width="1.03515" shape-rendering="crispEdges"/>
</g>
<circle cx="151.02" cy="149.584" r="147.322" fill="url(#paint3_radial_1_1484)"/>
<g filter="url(#filter1_d_1_1484)">
<ellipse cx="151.021" cy="173.942" rx="144.032" ry="84.2613" fill="url(#paint4_linear_1_1484)" fill-opacity="0.5" shape-rendering="crispEdges"/>
</g>
<g filter="url(#filter2_d_1_1484)">
<ellipse cx="151.021" cy="121.63" rx="142.567" ry="82.3127" fill="url(#paint5_linear_1_1484)" fill-opacity="0.5" shape-rendering="crispEdges"/>
<path d="M293.07 121.63C293.07 144.097 277.293 164.535 251.572 179.385C225.865 194.228 190.315 203.425 151.021 203.425C111.727 203.425 76.1775 194.228 50.4699 179.385C24.7486 164.535 8.97186 144.097 8.97186 121.63C8.97186 99.1629 24.7486 78.7246 50.4699 63.8741C76.1775 49.0315 111.727 39.8346 151.021 39.8346C190.315 39.8346 225.865 49.0315 251.572 63.8741C277.293 78.7246 293.07 99.1629 293.07 121.63Z" stroke="url(#paint6_linear_1_1484)" stroke-opacity="0.6" stroke-width="1.03515" shape-rendering="crispEdges"/>
</g>
<g filter="url(#filter3_d_1_1484)">
<ellipse cx="151.022" cy="54.2874" rx="68.8574" ry="46.6703" fill="url(#paint7_linear_1_1484)" fill-opacity="0.5" shape-rendering="crispEdges"/>
</g>
<circle cx="151.02" cy="149.583" r="109.124" fill="url(#paint8_radial_1_1484)"/>
<g filter="url(#filter4_d_1_1484)">
<path d="M261.129 79.1239C261.129 98.6355 248.893 116.37 228.964 129.252C209.039 142.131 181.483 150.113 151.019 150.113C120.555 150.113 92.9987 142.131 73.0744 129.252C53.1449 116.37 40.9089 98.6355 40.9089 79.1239C40.9089 59.6123 53.1449 41.8775 73.0744 28.9957C92.9987 16.1171 120.555 8.1347 151.019 8.1347C181.483 8.1347 209.039 16.1171 228.964 28.9957C248.893 41.8775 261.129 59.6123 261.129 79.1239Z" stroke="url(#paint9_linear_1_1484)" stroke-opacity="0.6" stroke-width="1.03515" shape-rendering="crispEdges"/>
</g>
<g filter="url(#filter5_d_1_1484)">
<path d="M293.07 121.63C293.07 144.097 277.293 164.535 251.572 179.385C225.865 194.228 190.315 203.425 151.021 203.425C111.727 203.425 76.1775 194.228 50.4699 179.385C24.7486 164.535 8.97186 144.097 8.97186 121.63C8.97186 99.1629 24.7486 78.7246 50.4699 63.8741C76.1775 49.0315 111.727 39.8346 151.021 39.8346C190.315 39.8346 225.865 49.0315 251.572 63.8741C277.293 78.7246 293.07 99.1629 293.07 121.63Z" stroke="url(#paint10_linear_1_1484)" stroke-opacity="0.6" stroke-width="1.03515" shape-rendering="crispEdges"/>
</g>
<g filter="url(#filter6_d_1_1484)">
<path d="M294.535 173.942C294.535 196.951 278.59 217.876 252.605 233.077C226.633 248.272 190.719 257.686 151.021 257.686C111.323 257.686 75.4085 248.272 49.4363 233.077C23.4516 217.876 7.50659 196.951 7.50659 173.942C7.50659 150.934 23.4516 130.009 49.4363 114.807C75.4085 99.6131 111.323 90.1987 151.021 90.1987C190.719 90.1987 226.633 99.6131 252.605 114.807C278.59 130.009 294.535 150.934 294.535 173.942Z" stroke="url(#paint11_linear_1_1484)" stroke-opacity="0.6" stroke-width="1.03515" shape-rendering="crispEdges"/>
</g>
<g filter="url(#filter7_d_1_1484)">
<path d="M219.362 54.2874C219.362 66.9521 211.789 78.4776 199.421 86.8598C187.057 95.2401 169.947 100.44 151.022 100.44C132.098 100.44 114.987 95.2401 102.623 86.8598C90.2561 78.4776 82.6825 66.9521 82.6825 54.2874C82.6825 41.6227 90.2561 30.0972 102.623 21.715C114.987 13.3347 132.098 8.1347 151.022 8.1347C169.947 8.1347 187.057 13.3347 199.421 21.715C211.789 30.0972 219.362 41.6227 219.362 54.2874Z" stroke="url(#paint12_linear_1_1484)" stroke-opacity="0.6" stroke-width="1.03515" shape-rendering="crispEdges"/>
</g>
<defs>
<filter id="filter0_d_1_1484" x="28.1688" y="137.942" width="247.775" height="161.024" filterUnits="userSpaceOnUse" color-interpolation-filters="sRGB">
<feFlood flood-opacity="0" result="BackgroundImageFix"/>
<feColorMatrix in="SourceAlpha" type="matrix" values="0 0 0 0 0 0 0 0 0 0 0 0 0 0 0 0 0 0 127 0" result="hardAlpha"/>
<feOffset dx="1.03515" dy="1.03515"/>
<feGaussianBlur stdDeviation="3.88183"/>
<feComposite in2="hardAlpha" operator="out"/>
<feColorMatrix type="matrix" values="0 0 0 0 0.440043 0 0 0 0 0.20092 0 0 0 0 0.679167 0 0 0 0.2 0"/>
<feBlend mode="normal" in2="BackgroundImageFix" result="effect1_dropShadow_1_1484"/>
<feBlend mode="normal" in="SourceGraphic" in2="effect1_dropShadow_1_1484" result="shape"/>
</filter>
<filter id="filter1_d_1_1484" x="0.260509" y="82.9526" width="303.591" height="184.05" filterUnits="userSpaceOnUse" color-interpolation-filters="sRGB">
<feFlood flood-opacity="0" result="BackgroundImageFix"/>
<feColorMatrix in="SourceAlpha" type="matrix" values="0 0 0 0 0 0 0 0 0 0 0 0 0 0 0 0 0 0 127 0" result="hardAlpha"/>
<feOffset dx="1.03515" dy="1.03515"/>
<feGaussianBlur stdDeviation="3.88183"/>
<feComposite in2="hardAlpha" operator="out"/>
<feColorMatrix type="matrix" values="0 0 0 0 0.440043 0 0 0 0 0.20092 0 0 0 0 0.679167 0 0 0 0.2 0"/>
<feBlend mode="normal" in2="BackgroundImageFix" result="effect1_dropShadow_1_1484"/>
<feBlend mode="normal" in="SourceGraphic" in2="effect1_dropShadow_1_1484" result="shape"/>
</filter>
<filter id="filter2_d_1_1484" x="1.72578" y="32.5885" width="300.661" height="180.153" filterUnits="userSpaceOnUse" color-interpolation-filters="sRGB">
<feFlood flood-opacity="0" result="BackgroundImageFix"/>
<feColorMatrix in="SourceAlpha" type="matrix" values="0 0 0 0 0 0 0 0 0 0 0 0 0 0 0 0 0 0 127 0" result="hardAlpha"/>
<feOffset dx="1.03515" dy="1.03515"/>
<feGaussianBlur stdDeviation="3.88183"/>
<feComposite in2="hardAlpha" operator="out"/>
<feColorMatrix type="matrix" values="0 0 0 0 0.440043 0 0 0 0 0.20092 0 0 0 0 0.679167 0 0 0 0.2 0"/>
<feBlend mode="normal" in2="BackgroundImageFix" result="effect1_dropShadow_1_1484"/>
<feBlend mode="normal" in="SourceGraphic" in2="effect1_dropShadow_1_1484" result="shape"/>
</filter>
<filter id="filter3_d_1_1484" x="75.4364" y="0.888622" width="153.242" height="108.868" filterUnits="userSpaceOnUse" color-interpolation-filters="sRGB">
<feFlood flood-opacity="0" result="BackgroundImageFix"/>
<feColorMatrix in="SourceAlpha" type="matrix" values="0 0 0 0 0 0 0 0 0 0 0 0 0 0 0 0 0 0 127 0" result="hardAlpha"/>
<feOffset dx="1.03515" dy="1.03515"/>
<feGaussianBlur stdDeviation="3.88183"/>
<feComposite in2="hardAlpha" operator="out"/>
<feColorMatrix type="matrix" values="0 0 0 0 0.440043 0 0 0 0 0.20092 0 0 0 0 0.679167 0 0 0 0.2 0"/>
<feBlend mode="normal" in2="BackgroundImageFix" result="effect1_dropShadow_1_1484"/>
<feBlend mode="normal" in="SourceGraphic" in2="effect1_dropShadow_1_1484" result="shape"/>
</filter>
<filter id="filter4_d_1_1484" x="33.6629" y="0.888622" width="236.783" height="158.541" filterUnits="userSpaceOnUse" color-interpolation-filters="sRGB">
<feFlood flood-opacity="0" result="BackgroundImageFix"/>
<feColorMatrix in="SourceAlpha" type="matrix" values="0 0 0 0 0 0 0 0 0 0 0 0 0 0 0 0 0 0 127 0" result="hardAlpha"/>
<feOffset dx="1.03515" dy="1.03515"/>
<feGaussianBlur stdDeviation="3.88183"/>
<feComposite in2="hardAlpha" operator="out"/>
<feColorMatrix type="matrix" values="0 0 0 0 0.440043 0 0 0 0 0.20092 0 0 0 0 0.679167 0 0 0 0.2 0"/>
<feBlend mode="normal" in2="BackgroundImageFix" result="effect1_dropShadow_1_1484"/>
<feBlend mode="normal" in="SourceGraphic" in2="effect1_dropShadow_1_1484" result="shape"/>
</filter>
<filter id="filter5_d_1_1484" x="1.72578" y="32.5885" width="300.661" height="180.153" filterUnits="userSpaceOnUse" color-interpolation-filters="sRGB">
<feFlood flood-opacity="0" result="BackgroundImageFix"/>
<feColorMatrix in="SourceAlpha" type="matrix" values="0 0 0 0 0 0 0 0 0 0 0 0 0 0 0 0 0 0 127 0" result="hardAlpha"/>
<feOffset dx="1.03515" dy="1.03515"/>
<feGaussianBlur stdDeviation="3.88183"/>
<feComposite in2="hardAlpha" operator="out"/>
<feColorMatrix type="matrix" values="0 0 0 0 0.440043 0 0 0 0 0.20092 0 0 0 0 0.679167 0 0 0 0.2 0"/>
<feBlend mode="normal" in2="BackgroundImageFix" result="effect1_dropShadow_1_1484"/>
<feBlend mode="normal" in="SourceGraphic" in2="effect1_dropShadow_1_1484" result="shape"/>
</filter>
<filter id="filter6_d_1_1484" x="0.260509" y="82.9526" width="303.591" height="184.05" filterUnits="userSpaceOnUse" color-interpolation-filters="sRGB">
<feFlood flood-opacity="0" result="BackgroundImageFix"/>
<feColorMatrix in="SourceAlpha" type="matrix" values="0 0 0 0 0 0 0 0 0 0 0 0 0 0 0 0 0 0 127 0" result="hardAlpha"/>
<feOffset dx="1.03515" dy="1.03515"/>
<feGaussianBlur stdDeviation="3.88183"/>
<feComposite in2="hardAlpha" operator="out"/>
<feColorMatrix type="matrix" values="0 0 0 0 0.440043 0 0 0 0 0.20092 0 0 0 0 0.679167 0 0 0 0.2 0"/>
<feBlend mode="normal" in2="BackgroundImageFix" result="effect1_dropShadow_1_1484"/>
<feBlend mode="normal" in="SourceGraphic" in2="effect1_dropShadow_1_1484" result="shape"/>
</filter>
<filter id="filter7_d_1_1484" x="75.4364" y="0.888622" width="153.242" height="108.868" filterUnits="userSpaceOnUse" color-interpolation-filters="sRGB">
<feFlood flood-opacity="0" result="BackgroundImageFix"/>
<feColorMatrix in="SourceAlpha" type="matrix" values="0 0 0 0 0 0 0 0 0 0 0 0 0 0 0 0 0 0 127 0" result="hardAlpha"/>
<feOffset dx="1.03515" dy="1.03515"/>
<feGaussianBlur stdDeviation="3.88183"/>
<feComposite in2="hardAlpha" operator="out"/>
<feColorMatrix type="matrix" values="0 0 0 0 0.440043 0 0 0 0 0.20092 0 0 0 0 0.679167 0 0 0 0.2 0"/>
<feBlend mode="normal" in2="BackgroundImageFix" result="effect1_dropShadow_1_1484"/>
<feBlend mode="normal" in="SourceGraphic" in2="effect1_dropShadow_1_1484" result="shape"/>
</filter>
<radialGradient id="paint0_radial_1_1484" cx="0" cy="0" r="1" gradientUnits="userSpaceOnUse" gradientTransform="translate(91.8529 315.515) rotate(-64.0757) scale(330.71)">
<stop offset="0.107416" stop-color="white" stop-opacity="0.5"/>
<stop offset="0.328407" stop-color="#8FB5FF" stop-opacity="0.5"/>
<stop offset="0.629496" stop-color="#220C7A" stop-opacity="0"/>
</radialGradient>
<linearGradient id="paint1_linear_1_1484" x1="267.145" y1="201.673" x2="34.9702" y2="218.43" gradientUnits="userSpaceOnUse">
<stop stop-color="#4E53BE" stop-opacity="0.5"/>
<stop offset="0.885417" stop-color="#33CEFF" stop-opacity="0.7"/>
<stop offset="1" stop-color="white" stop-opacity="0.5"/>
</linearGradient>
<linearGradient id="paint2_linear_1_1484" x1="171.318" y1="321.755" x2="185.794" y2="160.783" gradientUnits="userSpaceOnUse">
<stop stop-color="white"/>
<stop offset="1" stop-color="white" stop-opacity="0"/>
</linearGradient>
<radialGradient id="paint3_radial_1_1484" cx="0" cy="0" r="1" gradientUnits="userSpaceOnUse" gradientTransform="translate(3.69874 203.176) rotate(-19.6638) scale(312.89)">
<stop offset="0.249306" stop-color="white"/>
<stop offset="0.48315" stop-color="#8FF2FF" stop-opacity="0.5"/>
<stop offset="0.627037" stop-color="#220C7A" stop-opacity="0.1"/>
</radialGradient>
<linearGradient id="paint4_linear_1_1484" x1="280.245" y1="169.07" x2="7.10959" y2="177.741" gradientUnits="userSpaceOnUse">
<stop stop-color="#4E53BE" stop-opacity="0.1"/>
<stop offset="1" stop-color="#33CEFF"/>
</linearGradient>
<linearGradient id="paint5_linear_1_1484" x1="259.122" y1="114.308" x2="8.63176" y2="125.576" gradientUnits="userSpaceOnUse">
<stop stop-color="#4E53BE" stop-opacity="0.1"/>
<stop offset="0.997187" stop-color="#33CEFF"/>
</linearGradient>
<linearGradient id="paint6_linear_1_1484" x1="175.939" y1="239.683" x2="191.053" y2="57.328" gradientUnits="userSpaceOnUse">
<stop stop-color="white"/>
<stop offset="1" stop-color="white" stop-opacity="0"/>
</linearGradient>
<linearGradient id="paint7_linear_1_1484" x1="219.88" y1="44.1858" x2="82.1042" y2="53.3769" gradientUnits="userSpaceOnUse">
<stop stop-color="#4E53BE" stop-opacity="0.1"/>
<stop offset="1" stop-color="#33CEFF" stop-opacity="0.9"/>
</linearGradient>
<radialGradient id="paint8_radial_1_1484" cx="0" cy="0" r="1" gradientUnits="userSpaceOnUse" gradientTransform="translate(172.283 355.261) rotate(-83.1976) scale(317.034)">
<stop offset="0.338542" stop-color="#68FFF6" stop-opacity="0.1"/>
<stop offset="0.802083" stop-color="#FFBFE9"/>
<stop offset="1" stop-color="white"/>
</radialGradient>
<linearGradient id="paint9_linear_1_1484" x1="163.562" y1="150.631" x2="170.955" y2="20.9595" gradientUnits="userSpaceOnUse">
<stop stop-color="white"/>
<stop offset="1" stop-color="white" stop-opacity="0"/>
</linearGradient>
<linearGradient id="paint10_linear_1_1484" x1="158.105" y1="206.102" x2="174.986" y2="52.4411" gradientUnits="userSpaceOnUse">
<stop stop-color="white"/>
<stop offset="1" stop-color="white" stop-opacity="0"/>
</linearGradient>
<linearGradient id="paint11_linear_1_1484" x1="161.517" y1="261.019" x2="164.362" y2="99.3183" gradientUnits="userSpaceOnUse">
<stop stop-color="white"/>
<stop offset="1" stop-color="white" stop-opacity="0"/>
</linearGradient>
<linearGradient id="paint12_linear_1_1484" x1="163.057" y1="121.222" x2="173.091" y2="18.0952" gradientUnits="userSpaceOnUse">
<stop stop-color="white"/>
<stop offset="1" stop-color="white" stop-opacity="0"/>
</linearGradient>
</defs>
</svg>
