<svg width="284" height="288" viewBox="0 0 284 288" fill="none" xmlns="http://www.w3.org/2000/svg">
<g filter="url(#filter0_d_131_173)">
<ellipse cx="142.259" cy="207.724" rx="111.442" ry="69.8154" fill="url(#paint0_linear_131_173)" fill-opacity="0.5" shape-rendering="crispEdges"/>
<path d="M253.231 207.724C253.231 226.783 240.898 244.108 220.811 256.693C200.73 269.273 172.959 277.069 142.259 277.069C111.56 277.069 83.7888 269.273 63.7077 256.693C43.6201 244.108 31.2878 226.783 31.2878 207.724C31.2878 188.666 43.6201 171.341 63.7077 158.756C83.7888 146.176 111.56 138.38 142.259 138.38C172.959 138.38 200.73 146.176 220.811 158.756C240.898 171.341 253.231 188.666 253.231 207.724Z" stroke="url(#paint1_linear_131_173)" stroke-opacity="0.6" stroke-width="0.941174" shape-rendering="crispEdges"/>
</g>
<circle cx="142.258" cy="142.625" r="141.382" fill="url(#paint2_radial_131_173)"/>
<ellipse cx="142.257" cy="166" rx="138.225" ry="80.864" fill="url(#paint3_linear_131_173)" fill-opacity="0.5"/>
<path d="M280.011 166C280.011 188.094 264.7 208.183 239.759 222.774C214.829 237.358 180.358 246.394 142.257 246.394C104.156 246.394 69.685 237.358 44.7552 222.774C19.8142 208.183 4.50315 188.094 4.50315 166C4.50315 143.907 19.8142 123.818 44.7552 109.227C69.685 94.6427 104.156 85.6069 142.257 85.6069C180.358 85.6069 214.829 94.6427 239.759 109.227C264.7 123.818 280.011 143.907 280.011 166Z" stroke="url(#paint4_linear_131_173)" stroke-opacity="0.6" stroke-width="0.941174"/>
<circle cx="142.257" cy="142.624" r="104.724" fill="url(#paint5_radial_131_173)"/>
<circle cx="142.257" cy="142.624" r="104.724" fill="url(#paint6_radial_131_173)"/>
<g filter="url(#filter1_d_131_173)">
<ellipse cx="142.258" cy="115.797" rx="136.819" ry="78.994" fill="url(#paint7_linear_131_173)" fill-opacity="0.5" shape-rendering="crispEdges"/>
<path d="M278.606 115.797C278.606 137.371 263.456 156.992 238.768 171.246C214.092 185.493 179.972 194.32 142.258 194.32C104.544 194.32 70.4235 185.493 45.7478 171.246C21.0596 156.992 5.90983 137.371 5.90983 115.797C5.90983 94.2223 21.0596 74.601 45.7478 60.347C70.4235 46.1001 104.544 37.2732 142.258 37.2732C179.972 37.2732 214.092 46.1001 238.768 60.347C263.456 74.601 278.606 94.2223 278.606 115.797Z" stroke="url(#paint8_linear_131_173)" stroke-opacity="0.6" stroke-width="0.941174" shape-rendering="crispEdges"/>
</g>
<g filter="url(#filter2_d_131_173)">
<ellipse cx="142.257" cy="75.0055" rx="106.167" ry="68.6237" fill="url(#paint9_linear_131_173)" fill-opacity="0.5" shape-rendering="crispEdges"/>
<path d="M247.954 75.0055C247.954 93.7422 236.204 110.769 217.073 123.135C197.948 135.497 171.497 143.159 142.257 143.159C113.017 143.159 86.5668 135.497 67.441 123.135C48.3105 110.769 36.5605 93.7422 36.5605 75.0055C36.5605 56.2688 48.3105 39.2419 67.441 26.8764C86.5668 14.514 113.017 6.85236 142.257 6.85236C171.497 6.85236 197.948 14.514 217.073 26.8764C236.204 39.2419 247.954 56.2688 247.954 75.0055Z" stroke="url(#paint10_linear_131_173)" stroke-opacity="0.6" stroke-width="0.941174" shape-rendering="crispEdges"/>
</g>
<ellipse cx="142.259" cy="51.1704" rx="66.0812" ry="44.7886" fill="url(#paint11_linear_131_173)" fill-opacity="0.5"/>
<path d="M207.87 51.1704C207.87 63.3357 200.595 74.4037 188.722 82.4511C176.851 90.4968 160.426 95.4884 142.259 95.4884C124.093 95.4884 107.668 90.4968 95.7969 82.4511C83.9237 74.4037 76.6487 63.3357 76.6487 51.1704C76.6487 39.005 83.9237 27.937 95.7969 19.8896C107.668 11.8439 124.093 6.85236 142.259 6.85236C160.426 6.85236 176.851 11.8439 188.722 19.8896C200.595 27.937 207.87 39.005 207.87 51.1704Z" stroke="url(#paint12_linear_131_173)" stroke-opacity="0.6" stroke-width="0.941174"/>
<ellipse cx="142.258" cy="35.8806" rx="38.2578" ry="26.3238" fill="url(#paint13_linear_131_173)" fill-opacity="0.5"/>
<path d="M180.045 35.8806C180.045 42.9503 175.881 49.4021 169.044 54.1066C162.208 58.8097 152.74 61.7338 142.258 61.7338C131.776 61.7338 122.308 58.8097 115.472 54.1066C108.635 49.4021 104.471 42.9503 104.471 35.8806C104.471 28.8109 108.635 22.359 115.472 17.6545C122.308 12.9514 131.776 10.0273 142.258 10.0273C152.74 10.0273 162.208 12.9514 169.044 17.6545C175.881 22.359 180.045 28.8109 180.045 35.8806Z" stroke="url(#paint14_linear_131_173)" stroke-opacity="0.6" stroke-width="0.941174"/>
<circle cx="142.258" cy="142.624" r="141.382" fill="url(#paint15_radial_131_173)" fill-opacity="0.3"/>
<defs>
<filter id="filter0_d_131_173" x="21.4055" y="129.438" width="241.708" height="158.454" filterUnits="userSpaceOnUse" color-interpolation-filters="sRGB">
<feFlood flood-opacity="0" result="BackgroundImageFix"/>
<feColorMatrix in="SourceAlpha" type="matrix" values="0 0 0 0 0 0 0 0 0 0 0 0 0 0 0 0 0 0 127 0" result="hardAlpha"/>
<feOffset dy="0.941174"/>
<feGaussianBlur stdDeviation="4.70587"/>
<feComposite in2="hardAlpha" operator="out"/>
<feColorMatrix type="matrix" values="0 0 0 0 0.440043 0 0 0 0 0.20092 0 0 0 0 0.679167 0 0 0 0.3 0"/>
<feBlend mode="normal" in2="BackgroundImageFix" result="effect1_dropShadow_131_173"/>
<feBlend mode="normal" in="SourceGraphic" in2="effect1_dropShadow_131_173" result="shape"/>
</filter>
<filter id="filter1_d_131_173" x="0.733371" y="33.0379" width="283.049" height="167.4" filterUnits="userSpaceOnUse" color-interpolation-filters="sRGB">
<feFlood flood-opacity="0" result="BackgroundImageFix"/>
<feColorMatrix in="SourceAlpha" type="matrix" values="0 0 0 0 0 0 0 0 0 0 0 0 0 0 0 0 0 0 127 0" result="hardAlpha"/>
<feOffset dy="0.941174"/>
<feGaussianBlur stdDeviation="2.35293"/>
<feComposite in2="hardAlpha" operator="out"/>
<feColorMatrix type="matrix" values="0 0 0 0 0.369333 0 0 0 0 0.0916667 0 0 0 0 0.5 0 0 0 0.15 0"/>
<feBlend mode="normal" in2="BackgroundImageFix" result="effect1_dropShadow_131_173"/>
<feBlend mode="normal" in="SourceGraphic" in2="effect1_dropShadow_131_173" result="shape"/>
</filter>
<filter id="filter2_d_131_173" x="29.9722" y="0.264145" width="226.452" height="151.365" filterUnits="userSpaceOnUse" color-interpolation-filters="sRGB">
<feFlood flood-opacity="0" result="BackgroundImageFix"/>
<feColorMatrix in="SourceAlpha" type="matrix" values="0 0 0 0 0 0 0 0 0 0 0 0 0 0 0 0 0 0 127 0" result="hardAlpha"/>
<feOffset dx="0.941174" dy="0.941174"/>
<feGaussianBlur stdDeviation="3.5294"/>
<feComposite in2="hardAlpha" operator="out"/>
<feColorMatrix type="matrix" values="0 0 0 0 0.440043 0 0 0 0 0.20092 0 0 0 0 0.679167 0 0 0 0.2 0"/>
<feBlend mode="normal" in2="BackgroundImageFix" result="effect1_dropShadow_131_173"/>
<feBlend mode="normal" in="SourceGraphic" in2="effect1_dropShadow_131_173" result="shape"/>
</filter>
<linearGradient id="paint0_linear_131_173" x1="142.259" y1="137.909" x2="142.259" y2="277.54" gradientUnits="userSpaceOnUse">
<stop stop-color="#13154D"/>
<stop offset="1" stop-color="#8E92EE" stop-opacity="0"/>
</linearGradient>
<linearGradient id="paint1_linear_131_173" x1="197.608" y1="216.526" x2="203.916" y2="286.959" gradientUnits="userSpaceOnUse">
<stop stop-color="white" stop-opacity="0"/>
<stop offset="1" stop-color="white"/>
</linearGradient>
<radialGradient id="paint2_radial_131_173" cx="0" cy="0" r="1" gradientUnits="userSpaceOnUse" gradientTransform="translate(0.875957 194.056) rotate(-19.6638) scale(300.275)">
<stop offset="0.249306" stop-color="white"/>
<stop offset="0.48315" stop-color="#FF8FED" stop-opacity="0.5"/>
<stop offset="0.627037" stop-color="#220C7A" stop-opacity="0.5"/>
</radialGradient>
<linearGradient id="paint3_linear_131_173" x1="15.3125" y1="183.186" x2="277.299" y2="153.616" gradientUnits="userSpaceOnUse">
<stop stop-color="white"/>
<stop offset="1" stop-color="#12178E" stop-opacity="0.4"/>
</linearGradient>
<linearGradient id="paint4_linear_131_173" x1="164.204" y1="281.135" x2="122.382" y2="181.358" gradientUnits="userSpaceOnUse">
<stop offset="0.0011346" stop-color="white"/>
<stop offset="1" stop-color="white" stop-opacity="0"/>
</linearGradient>
<radialGradient id="paint5_radial_131_173" cx="0" cy="0" r="1" gradientUnits="userSpaceOnUse" gradientTransform="translate(63.049 195.803) rotate(-14.8494) scale(207.504)">
<stop offset="0.239373" stop-color="white"/>
<stop offset="0.410099" stop-color="#FFCEF1"/>
<stop offset="0.67492" stop-color="#B6B9FF"/>
<stop offset="0.861176" stop-color="#FFA8E7"/>
<stop offset="1" stop-color="white"/>
</radialGradient>
<radialGradient id="paint6_radial_131_173" cx="0" cy="0" r="1" gradientUnits="userSpaceOnUse" gradientTransform="translate(241.472 223.571) rotate(-121.724) scale(119.316)">
<stop stop-color="#3F52FF"/>
<stop offset="1" stop-color="#3F52FF" stop-opacity="0"/>
</radialGradient>
<linearGradient id="paint7_linear_131_173" x1="8.38548" y1="110.352" x2="279.076" y2="118.762" gradientUnits="userSpaceOnUse">
<stop stop-color="white"/>
<stop offset="1" stop-color="#5653FF" stop-opacity="0.2"/>
</linearGradient>
<linearGradient id="paint8_linear_131_173" x1="124.241" y1="250.563" x2="115.734" y2="121.709" gradientUnits="userSpaceOnUse">
<stop stop-color="white"/>
<stop offset="1" stop-color="white" stop-opacity="0"/>
</linearGradient>
<linearGradient id="paint9_linear_131_173" x1="142.257" y1="6.38177" x2="142.257" y2="143.629" gradientUnits="userSpaceOnUse">
<stop stop-color="#13154D" stop-opacity="0.5"/>
<stop offset="1" stop-color="#8E92EE" stop-opacity="0"/>
</linearGradient>
<linearGradient id="paint10_linear_131_173" x1="160.813" y1="173.426" x2="174.895" y2="21.6598" gradientUnits="userSpaceOnUse">
<stop stop-color="white"/>
<stop offset="1" stop-color="white" stop-opacity="0"/>
</linearGradient>
<linearGradient id="paint11_linear_131_173" x1="142.259" y1="6.38177" x2="142.259" y2="95.9589" gradientUnits="userSpaceOnUse">
<stop stop-color="#13154D"/>
<stop offset="1" stop-color="#8E92EE" stop-opacity="0"/>
</linearGradient>
<linearGradient id="paint12_linear_131_173" x1="168.699" y1="161.863" x2="142.259" y2="6.38177" gradientUnits="userSpaceOnUse">
<stop stop-color="white"/>
<stop offset="1" stop-color="white" stop-opacity="0"/>
</linearGradient>
<linearGradient id="paint13_linear_131_173" x1="142.258" y1="9.55676" x2="142.258" y2="62.2044" gradientUnits="userSpaceOnUse">
<stop stop-color="#13154D"/>
<stop offset="1" stop-color="#8E92EE" stop-opacity="0"/>
</linearGradient>
<linearGradient id="paint14_linear_131_173" x1="162.916" y1="117.711" x2="142.258" y2="9.55677" gradientUnits="userSpaceOnUse">
<stop stop-color="white"/>
<stop offset="1" stop-color="white" stop-opacity="0"/>
</linearGradient>
<radialGradient id="paint15_radial_131_173" cx="0" cy="0" r="1" gradientUnits="userSpaceOnUse" gradientTransform="translate(0.875957 194.055) rotate(-19.6638) scale(300.275)">
<stop offset="0.249306" stop-color="white"/>
<stop offset="0.48315" stop-color="#FF8FED" stop-opacity="0.5"/>
<stop offset="0.627037" stop-color="#220C7A" stop-opacity="0"/>
</radialGradient>
</defs>
</svg>
