<svg width="1133" height="1342" viewBox="0 0 1133 1342" fill="none" xmlns="http://www.w3.org/2000/svg">
<path d="M776.382 1224.55C679.64 1238.41 603.854 1213.08 559.44 1161.09C515.026 1109.09 501.861 1030.28 530.666 936.889C559.472 843.499 624.779 753.299 707.107 682.977C789.435 612.655 888.735 562.251 985.48 548.399C1082.22 534.547 1158.01 559.871 1202.42 611.868C1246.84 663.865 1260 742.678 1231.2 836.065C1202.39 929.454 1137.08 1019.65 1054.75 1089.98C972.427 1160.3 873.127 1210.7 776.382 1224.55Z" stroke="url(#paint0_linear_1_1229)" stroke-width="1.20396"/>
<path d="M765.399 1212.1C668.545 1225.96 592.574 1200.62 548.023 1148.46C503.472 1096.31 490.316 1017.31 519.155 923.812C547.993 830.316 613.363 740.044 695.743 669.676C778.124 599.309 877.506 548.856 974.361 534.988C1071.21 521.12 1147.19 546.463 1191.74 598.621C1236.29 650.778 1249.44 729.777 1220.61 823.272C1191.77 916.768 1126.4 1007.04 1044.02 1077.41C961.636 1147.77 862.254 1198.23 765.399 1212.1Z" stroke="url(#paint1_linear_1_1229)" stroke-width="0.240792"/>
<path d="M755.426 1270.7C642.147 1284.71 552.484 1252.92 499.015 1190.32C445.546 1127.72 428.165 1034.19 459.709 924.498C491.255 814.797 565.746 709.768 660.706 628.655C755.666 547.543 871.049 490.387 984.333 476.379C1097.61 462.371 1187.27 494.16 1240.74 556.758C1294.21 619.355 1311.59 712.885 1280.05 822.581C1248.5 932.282 1174.01 1037.31 1079.05 1118.42C984.093 1199.54 868.71 1256.69 755.426 1270.7Z" stroke="url(#paint2_linear_1_1229)" stroke-width="1.20396"/>
<path d="M755.426 1270.7C642.147 1284.71 552.484 1252.92 499.015 1190.32C445.546 1127.72 428.165 1034.19 459.709 924.498C491.255 814.797 565.746 709.768 660.706 628.655C755.666 547.543 871.049 490.387 984.333 476.379C1097.61 462.371 1187.27 494.16 1240.74 556.758C1294.21 619.355 1311.59 712.885 1280.05 822.581C1248.5 932.282 1174.01 1037.31 1079.05 1118.42C984.093 1199.54 868.71 1256.69 755.426 1270.7Z" stroke="url(#paint3_linear_1_1229)" stroke-opacity="0.2" stroke-width="1.20396"/>
<path d="M745.391 1258.92C627.698 1267.75 532.215 1229.19 472.928 1159.78C413.642 1090.38 390.483 990.038 417.607 875.174C444.733 760.302 517.008 652.693 611.959 571.589C706.91 490.485 824.494 435.92 942.194 427.085C1059.89 418.251 1155.37 456.812 1214.66 526.22C1273.94 595.628 1297.1 695.966 1269.98 810.83C1242.85 925.702 1170.58 1033.31 1075.63 1114.41C980.675 1195.52 863.091 1250.08 745.391 1258.92Z" stroke="url(#paint4_linear_1_1229)" stroke-width="1.20396"/>
<defs>
<linearGradient id="paint0_linear_1_1229" x1="622.978" y1="584.485" x2="903.382" y2="912.759" gradientUnits="userSpaceOnUse">
<stop stop-color="#8FBCFF" stop-opacity="0.6"/>
<stop offset="1" stop-color="#8FBCFF" stop-opacity="0"/>
</linearGradient>
<linearGradient id="paint1_linear_1_1229" x1="680.525" y1="651.86" x2="1044.09" y2="1077.5" gradientUnits="userSpaceOnUse">
<stop stop-color="#8FBCFF" stop-opacity="0.6"/>
<stop offset="1" stop-color="#8FBCFF" stop-opacity="0"/>
</linearGradient>
<linearGradient id="paint2_linear_1_1229" x1="547.063" y1="495.61" x2="931.42" y2="945.587" gradientUnits="userSpaceOnUse">
<stop stop-color="white" stop-opacity="0.6"/>
<stop offset="0.34375" stop-color="#8FBCFF" stop-opacity="0.6"/>
<stop offset="1" stop-color="#8FBCFF" stop-opacity="0"/>
</linearGradient>
<linearGradient id="paint3_linear_1_1229" x1="898.253" y1="499.783" x2="934.654" y2="657.451" gradientUnits="userSpaceOnUse">
<stop stop-color="#FF48D7"/>
<stop offset="0.234164" stop-color="white" stop-opacity="0.765836"/>
<stop offset="1" stop-color="#FF48D7" stop-opacity="0"/>
</linearGradient>
<linearGradient id="paint4_linear_1_1229" x1="591.387" y1="547.503" x2="869.655" y2="873.278" gradientUnits="userSpaceOnUse">
<stop stop-color="#8FBCFF" stop-opacity="0.6"/>
<stop offset="1" stop-color="#8FBCFF" stop-opacity="0"/>
</linearGradient>
</defs>
</svg>
