<svg width="941" height="1211" viewBox="0 0 941 1211" fill="none" xmlns="http://www.w3.org/2000/svg">
<rect x="524.815" y="669.082" width="4.57312" height="4.57311" transform="rotate(-85.5031 524.815 669.082)" fill="#00F0FF" fill-opacity="0.5"/>
<rect x="525.001" y="484.601" width="1.88565" height="1.88565" transform="rotate(-85.5031 525.001 484.601)" fill="#00F0FF"/>
<rect width="2.47636" height="2.47636" transform="matrix(-0.078406 0.996921 0.996922 0.0784061 896.796 449.824)" fill="#00F0FF"/>
<rect x="592.94" y="435.144" width="2.85182" height="2.85182" transform="rotate(-85.5031 592.94 435.144)" fill="#00F0FF"/>
<rect x="601.123" y="476.703" width="1.69013" height="1.69013" transform="rotate(-85.5031 601.123 476.703)" fill="#00F0FF"/>
<rect x="608.315" y="746.76" width="4.57312" height="4.57311" transform="rotate(-85.5031 608.315 746.76)" fill="#00F0FF"/>
<rect x="475.653" y="828.041" width="4.57312" height="4.57311" transform="rotate(-85.5031 475.653 828.041)" fill="#0500FF" fill-opacity="0.5"/>
<rect x="438.729" y="687.547" width="3.19614" height="3.19614" transform="rotate(-85.5031 438.729 687.547)" fill="#3DFFFB"/>
<rect x="813.597" y="891.507" width="5.94404" height="5.94404" transform="rotate(-85.5031 813.597 891.507)" fill="#0500FF" fill-opacity="0.5"/>
<rect width="5.43657" height="5.43657" transform="matrix(-0.958331 -0.28566 0.285693 -0.958321 876.597 646.557)" fill="#0066FF" fill-opacity="0.5"/>
<rect width="4.25311" height="4.25311" transform="matrix(-0.996921 -0.0784134 0.0783987 -0.996922 772.652 574.281)" fill="#00D1FF"/>
<rect width="5.10915" height="5.10915" transform="matrix(0.958326 0.285676 0.285676 -0.958326 594.079 667.502)" fill="#001AFF" fill-opacity="0.5"/>
<rect x="622.228" y="542.382" width="5.43657" height="5.43657" transform="rotate(-163.401 622.228 542.382)" fill="#0066FF" fill-opacity="0.5"/>
<rect x="789.674" y="455.685" width="3.93056" height="3.93056" transform="rotate(-175.503 789.674 455.685)" fill="#0500FF" fill-opacity="0.5"/>
<rect width="3.80351" height="3.80351" transform="matrix(-0.958333 -0.285652 0.2857 -0.958319 925.679 721.181)" fill="#0500FF" fill-opacity="0.5"/>
<rect width="3.04573" height="3.04573" transform="matrix(0.0784165 -0.996921 0.996922 0.0783957 563.551 674.045)" fill="#00FFF0" fill-opacity="0.6"/>
<rect x="536.768" y="874.892" width="3.43135" height="3.43135" transform="rotate(-85.503 536.768 874.892)" fill="#00FFF0"/>
<rect width="3.78863" height="3.78863" transform="matrix(-0.0784062 0.996921 0.996922 0.078406 421.836 634.815)" fill="#00FFF0"/>
<rect x="497.59" y="581.158" width="4.03142" height="4.03142" transform="rotate(-85.503 497.59 581.158)" fill="#00FFF0"/>
<rect width="4.03142" height="4.03142" transform="matrix(0.0783984 -0.996922 0.996921 0.0784138 792.409 738.971)" fill="#00FFF0" fill-opacity="0.5"/>
<rect x="687.567" y="787.143" width="2.20999" height="2.20999" transform="rotate(-85.503 687.567 787.143)" fill="#00FFF0" fill-opacity="0.5"/>
<rect x="615.14" y="923.437" width="4.03142" height="4.03142" transform="rotate(-120.813 615.14 923.437)" fill="#0500FF" fill-opacity="0.5"/>
<rect x="573.9" y="831.07" width="2.81467" height="2.81467" transform="rotate(-85.503 573.9 831.07)" fill="#00D1FF" fill-opacity="0.6"/>
<rect x="601.528" y="853.609" width="7.58361" height="7.58361" transform="rotate(-85.503 601.528 853.609)" fill="#6100FF" fill-opacity="0.5"/>
<g opacity="0.5">
<rect x="411.487" y="566.131" width="3.04573" height="3.04573" transform="rotate(-85.5031 411.487 566.131)" fill="#00FFF0" fill-opacity="0.6"/>
<rect width="3.43135" height="3.43135" transform="matrix(0.0784151 -0.996921 0.996922 0.0783971 384.704 766.977)" fill="#00FFF0"/>
<rect width="3.78863" height="3.78863" transform="matrix(-0.078406 0.996922 0.996921 0.0784062 269.772 526.904)" fill="#00FFF0"/>
<rect width="4.03142" height="4.03142" transform="matrix(0.0783982 -0.996922 0.996921 0.078414 345.525 473.243)" fill="#00FFF0"/>
<rect x="640.345" y="631.056" width="4.03142" height="4.03142" transform="rotate(-85.5031 640.345 631.056)" fill="#00FFF0" fill-opacity="0.5"/>
<rect x="535.503" y="679.228" width="2.20999" height="2.20999" transform="rotate(-85.5031 535.503 679.228)" fill="#00FFF0" fill-opacity="0.5"/>
<rect x="463.076" y="815.522" width="4.03142" height="4.03142" transform="rotate(-120.813 463.076 815.522)" fill="#0500FF" fill-opacity="0.5"/>
<rect x="421.837" y="723.156" width="2.81467" height="2.81467" transform="rotate(-85.5031 421.837 723.156)" fill="#00D1FF" fill-opacity="0.6"/>
<rect width="7.58361" height="7.58361" transform="matrix(0.0784018 -0.996922 0.996921 0.0784103 449.464 745.698)" fill="#6100FF" fill-opacity="0.5"/>
</g>
</svg>
