<svg width="184" height="282" viewBox="0 0 184 282" fill="none" xmlns="http://www.w3.org/2000/svg">
<path d="M91.9995 281.625L29.9714 247.999L0.318474 198.782L44.8858 37.1826L91.9996 64.4323L91.9995 281.625Z" fill="url(#paint0_linear_1_1437)"/>
<path opacity="0.8" d="M92.0001 281.625L91.9993 170.018L37.2167 202.285L29.9719 247.998L92.0001 281.625Z" fill="url(#paint1_linear_1_1437)" fill-opacity="0.7"/>
<g opacity="0.8">
<path d="M92.0002 281.624L154.039 247.991L183.681 198.782L139.114 37.1826L92.0001 64.4323L92.0002 281.624Z" fill="url(#paint2_linear_1_1437)" fill-opacity="0.7"/>
<path d="M92.0002 281.624L154.039 247.991L183.681 198.782L139.114 37.1826L92.0001 64.4323L92.0002 281.624Z" fill="url(#paint3_linear_1_1437)" fill-opacity="0.5"/>
</g>
<path d="M44.8837 37.1826L91.9998 64.4316L91.9998 9.93354L44.8837 37.1826Z" fill="url(#paint4_linear_1_1437)"/>
<path d="M91.9992 195.81L123.196 213.853L91.9992 231.895L60.8019 213.853L91.9992 195.81Z" fill="url(#paint5_linear_1_1437)" fill-opacity="0.5"/>
<path d="M139.116 37.1826L91.9994 9.93354L91.9995 64.4316L139.116 37.1826Z" fill="url(#paint6_linear_1_1437)" fill-opacity="0.8"/>
<path d="M91.9992 21.4183L117.27 36.0335L91.9992 50.6487L66.7281 36.0335L91.9992 21.4183Z" fill="url(#paint7_linear_1_1437)" fill-opacity="0.6"/>
<path opacity="0.8" d="M92.0009 281.625L92.0016 170.018L146.784 202.285L154.029 247.998L92.0009 281.625Z" fill="url(#paint8_linear_1_1437)"/>
<path d="M183.681 198.781L154.029 247.998L146.784 202.285L183.681 198.781Z" fill="url(#paint9_linear_1_1437)" fill-opacity="0.7"/>
<path d="M91.9992 153.292L142.773 182.656L91.9992 212.02L41.2257 182.656L91.9992 153.292Z" fill="url(#paint10_linear_1_1437)" fill-opacity="0.7"/>
<path d="M91.9992 153.292L142.773 182.656L91.9992 212.02L41.2257 182.656L91.9992 153.292Z" fill="url(#paint11_linear_1_1437)" fill-opacity="0.7"/>
<path d="M91.9983 212.019L142.771 182.656L123.195 213.854L91.9983 231.896V212.019Z" fill="url(#paint12_linear_1_1437)" fill-opacity="0.9"/>
<path d="M91.9991 212.027L41.2265 182.664L66.7294 36.0334L91.9992 50.649L91.9991 212.027Z" fill="url(#paint13_linear_1_1437)" fill-opacity="0.6"/>
<path d="M91.9997 212.027L142.772 182.664L117.269 36.0334L91.9996 50.649L91.9997 212.027Z" fill="url(#paint14_linear_1_1437)" fill-opacity="0.9"/>
<path d="M91.9983 212.019L41.2257 182.656L60.8016 213.854L91.9983 231.896V212.019Z" fill="url(#paint15_linear_1_1437)" fill-opacity="0.9"/>
<path d="M0.319496 198.781L29.9722 247.998L37.2169 202.285L0.319496 198.781Z" fill="url(#paint16_linear_1_1437)" fill-opacity="0.7"/>
<defs>
<linearGradient id="paint0_linear_1_1437" x1="272.459" y1="20.0802" x2="285.682" y2="202.812" gradientUnits="userSpaceOnUse">
<stop stop-color="#3D79ED"/>
<stop offset="0.265625" stop-color="#3458C1" stop-opacity="0.7"/>
<stop offset="0.618879" stop-color="#3753B8" stop-opacity="0.7"/>
<stop offset="0.895833" stop-color="#5BB0FF" stop-opacity="0.9"/>
<stop offset="1" stop-color="#5BB0FF" stop-opacity="0.6"/>
</linearGradient>
<linearGradient id="paint1_linear_1_1437" x1="84.6637" y1="266.896" x2="52.7539" y2="196.127" gradientUnits="userSpaceOnUse">
<stop offset="0.046875" stop-color="white"/>
<stop offset="0.427083" stop-color="#DFF4FF"/>
<stop offset="0.994792" stop-color="#0E42C8"/>
</linearGradient>
<linearGradient id="paint2_linear_1_1437" x1="183.681" y1="288.359" x2="77.4859" y2="207.335" gradientUnits="userSpaceOnUse">
<stop offset="0.280479" stop-color="white"/>
<stop offset="0.469567" stop-color="#FF79DA"/>
<stop offset="0.692708" stop-color="#3D3AE3" stop-opacity="0.9"/>
</linearGradient>
<linearGradient id="paint3_linear_1_1437" x1="183.681" y1="277.031" x2="78.702" y2="176.278" gradientUnits="userSpaceOnUse">
<stop offset="0.161458" stop-color="white"/>
<stop offset="1" stop-color="white" stop-opacity="0"/>
</linearGradient>
<linearGradient id="paint4_linear_1_1437" x1="92.1162" y1="10.8394" x2="67.375" y2="51.3792" gradientUnits="userSpaceOnUse">
<stop stop-color="#1AD6FF"/>
<stop offset="1" stop-color="#496BE4" stop-opacity="0.6"/>
<stop offset="1" stop-color="#1F3CA3"/>
</linearGradient>
<linearGradient id="paint5_linear_1_1437" x1="109.905" y1="224.031" x2="66.9739" y2="213.853" gradientUnits="userSpaceOnUse">
<stop stop-color="#81FF6C"/>
<stop offset="1" stop-color="#31F3FF"/>
</linearGradient>
<linearGradient id="paint6_linear_1_1437" x1="139.116" y1="34.3883" x2="94.2025" y2="30.2151" gradientUnits="userSpaceOnUse">
<stop stop-color="#FF79C9"/>
<stop offset="1" stop-color="#1F3CA3"/>
</linearGradient>
<linearGradient id="paint7_linear_1_1437" x1="112.386" y1="39.4562" x2="82.5774" y2="36.0335" gradientUnits="userSpaceOnUse">
<stop stop-color="#52FF6E"/>
<stop offset="1" stop-color="#31FFFF"/>
</linearGradient>
<linearGradient id="paint8_linear_1_1437" x1="141.897" y1="263.915" x2="118.696" y2="181.57" gradientUnits="userSpaceOnUse">
<stop offset="0.103809" stop-color="white"/>
<stop offset="0.436548" stop-color="#FFAACE" stop-opacity="0.8"/>
<stop offset="0.71875" stop-color="#6F97FF" stop-opacity="0.8"/>
</linearGradient>
<linearGradient id="paint9_linear_1_1437" x1="165.233" y1="235.299" x2="146.784" y2="198.781" gradientUnits="userSpaceOnUse">
<stop stop-color="white"/>
<stop offset="0.591466" stop-color="#FF94D4"/>
<stop offset="1" stop-color="#C994FF"/>
</linearGradient>
<linearGradient id="paint10_linear_1_1437" x1="121.141" y1="199.221" x2="51.2705" y2="182.656" gradientUnits="userSpaceOnUse">
<stop stop-color="#81FF6C"/>
<stop offset="1" stop-color="#31F3FF"/>
</linearGradient>
<linearGradient id="paint11_linear_1_1437" x1="91.9992" y1="209.912" x2="91.9992" y2="151.951" gradientUnits="userSpaceOnUse">
<stop stop-color="white"/>
<stop offset="1" stop-color="white" stop-opacity="0"/>
</linearGradient>
<linearGradient id="paint12_linear_1_1437" x1="145.247" y1="182.656" x2="93.2843" y2="229.575" gradientUnits="userSpaceOnUse">
<stop offset="0.149863" stop-color="white"/>
<stop offset="0.300261" stop-color="#8CFF31"/>
<stop offset="0.449118" stop-color="#45C3EB"/>
<stop offset="1" stop-color="#72E6FF"/>
</linearGradient>
<linearGradient id="paint13_linear_1_1437" x1="69.3299" y1="212.027" x2="-11.2082" y2="155.593" gradientUnits="userSpaceOnUse">
<stop stop-color="#6CFFED"/>
<stop offset="1" stop-color="#197F9F"/>
</linearGradient>
<linearGradient id="paint14_linear_1_1437" x1="269.439" y1="146.044" x2="185.314" y2="57.9607" gradientUnits="userSpaceOnUse">
<stop offset="0.464598" stop-color="white"/>
<stop offset="0.790313" stop-color="#6DF390"/>
<stop offset="1" stop-color="#21CAFF" stop-opacity="0.9"/>
</linearGradient>
<linearGradient id="paint15_linear_1_1437" x1="41.2257" y1="182.656" x2="90.7141" y2="229.507" gradientUnits="userSpaceOnUse">
<stop offset="0.125" stop-color="white"/>
<stop offset="0.297772" stop-color="#8CFF31"/>
<stop offset="0.447917" stop-color="#5BF5FF"/>
</linearGradient>
<linearGradient id="paint16_linear_1_1437" x1="31.9026" y1="251.992" x2="24.7485" y2="198.781" gradientUnits="userSpaceOnUse">
<stop stop-color="#DFF4FF"/>
<stop offset="0.994792" stop-color="#0E42C8"/>
</linearGradient>
</defs>
</svg>
